solid OpenSCAD_Model
  facet normal -1 -0 -0
    outer loop
      vertex 2.5 0 0
      vertex 2.5 0 12
      vertex 2.5 20 0
    endloop
  endfacet
  facet normal -1 0 0
    outer loop
      vertex 2.5 20 0
      vertex 2.5 0 12
      vertex 2.5 20 12
    endloop
  endfacet
  facet normal 0 -1 0
    outer loop
      vertex 18.5 0 2
      vertex 2.5 0 0
      vertex 24.5 0 0
    endloop
  endfacet
  facet normal 0 -1 0
    outer loop
      vertex 8.5 0 2
      vertex 8.5 0 12
      vertex 2.5 0 12
    endloop
  endfacet
  facet normal 0 -1 0
    outer loop
      vertex 24.5 0 12
      vertex 18.5 0 12
      vertex 24.5 0 0
    endloop
  endfacet
  facet normal 0 -1 0
    outer loop
      vertex 8.5 0 2
      vertex 2.5 0 0
      vertex 18.5 0 2
    endloop
  endfacet
  facet normal 0 -1 0
    outer loop
      vertex 2.5 0 12
      vertex 2.5 0 0
      vertex 8.5 0 2
    endloop
  endfacet
  facet normal 0 -1 0
    outer loop
      vertex 18.5 0 12
      vertex 18.5 0 2
      vertex 24.5 0 0
    endloop
  endfacet
  facet normal -0 -0 -1
    outer loop
      vertex 2.5 0 0
      vertex 2.5 20 0
      vertex 24.5 0 0
    endloop
  endfacet
  facet normal 0 0 -1
    outer loop
      vertex 24.5 0 0
      vertex 2.5 20 0
      vertex 24.5 20 0
    endloop
  endfacet
  facet normal 0 1 0
    outer loop
      vertex 2.5 20 0
      vertex 2.5 20 12
      vertex 24.5 20 0
    endloop
  endfacet
  facet normal 0 1 0
    outer loop
      vertex 24.5 20 0
      vertex 2.5 20 12
      vertex 24.5 20 12
    endloop
  endfacet
  facet normal 0 -0 1
    outer loop
      vertex 2.5 20 12
      vertex 2.5 0 12
      vertex 8.5 0 12
    endloop
  endfacet
  facet normal -0 0 1
    outer loop
      vertex 18.5 14 12
      vertex 2.5 20 12
      vertex 8.5 14 12
    endloop
  endfacet
  facet normal -0 0 1
    outer loop
      vertex 8.5 14 12
      vertex 2.5 20 12
      vertex 8.5 0 12
    endloop
  endfacet
  facet normal 0 0 1
    outer loop
      vertex 24.5 20 12
      vertex 2.5 20 12
      vertex 18.5 14 12
    endloop
  endfacet
  facet normal -0 0 1
    outer loop
      vertex 24.5 0 12
      vertex 18.5 14 12
      vertex 18.5 0 12
    endloop
  endfacet
  facet normal 0 0 1
    outer loop
      vertex 24.5 20 12
      vertex 18.5 14 12
      vertex 24.5 0 12
    endloop
  endfacet
  facet normal 1 0 0
    outer loop
      vertex 8.5 14 2
      vertex 8.5 14 12
      vertex 8.5 0 12
    endloop
  endfacet
  facet normal 1 0 0
    outer loop
      vertex 8.5 0 2
      vertex 8.5 14 2
      vertex 8.5 0 12
    endloop
  endfacet
  facet normal 0 0 1
    outer loop
      vertex 18.5 0 2
      vertex 18.5 14 2
      vertex 8.5 14 2
    endloop
  endfacet
  facet normal 0 0 1
    outer loop
      vertex 8.5 0 2
      vertex 18.5 0 2
      vertex 8.5 14 2
    endloop
  endfacet
  facet normal -1 0 0
    outer loop
      vertex 18.5 14 12
      vertex 18.5 14 2
      vertex 18.5 0 12
    endloop
  endfacet
  facet normal -1 0 0
    outer loop
      vertex 18.5 0 12
      vertex 18.5 14 2
      vertex 18.5 0 2
    endloop
  endfacet
  facet normal 1 0 -0
    outer loop
      vertex 24.5 0 12
      vertex 24.5 0 0
      vertex 24.5 20 0
    endloop
  endfacet
  facet normal 1 0 0
    outer loop
      vertex 24.5 20 12
      vertex 24.5 0 12
      vertex 24.5 20 0
    endloop
  endfacet
  facet normal 0 -1 0
    outer loop
      vertex 18.5 14 2
      vertex 18.5 14 12
      vertex 8.5 14 12
    endloop
  endfacet
  facet normal -0 -1 -0
    outer loop
      vertex 8.5 14 2
      vertex 18.5 14 2
      vertex 8.5 14 12
    endloop
  endfacet
  facet normal -1 -0 -0
    outer loop
      vertex -12.5 0 0
      vertex -12.5 0 10
      vertex -12.5 20 0
    endloop
  endfacet
  facet normal -1 0 0
    outer loop
      vertex -12.5 20 0
      vertex -12.5 0 10
      vertex -12.5 20 10
    endloop
  endfacet
  facet normal 0 -1 0
    outer loop
      vertex -12.5 0 10
      vertex -12.5 0 0
      vertex -2.5 0 0
    endloop
  endfacet
  facet normal 0 -1 0
    outer loop
      vertex -2.5 0 10
      vertex -12.5 0 10
      vertex -2.5 0 0
    endloop
  endfacet
  facet normal -0 -0 -1
    outer loop
      vertex -12.5 0 0
      vertex -12.5 20 0
      vertex -2.5 0 0
    endloop
  endfacet
  facet normal 0 0 -1
    outer loop
      vertex -2.5 0 0
      vertex -12.5 20 0
      vertex -2.5 20 0
    endloop
  endfacet
  facet normal 0 1 0
    outer loop
      vertex -12.5 20 0
      vertex -12.5 20 10
      vertex -2.5 20 0
    endloop
  endfacet
  facet normal 0 1 0
    outer loop
      vertex -2.5 20 0
      vertex -12.5 20 10
      vertex -2.5 20 10
    endloop
  endfacet
  facet normal 0 -0 1
    outer loop
      vertex -12.5 20 10
      vertex -12.5 0 10
      vertex -2.5 0 10
    endloop
  endfacet
  facet normal 0 0 1
    outer loop
      vertex -2.5 20 10
      vertex -12.5 20 10
      vertex -2.5 0 10
    endloop
  endfacet
  facet normal 1 0 -0
    outer loop
      vertex -2.5 0 10
      vertex -2.5 0 0
      vertex -2.5 20 0
    endloop
  endfacet
  facet normal 1 0 0
    outer loop
      vertex -2.5 20 10
      vertex -2.5 0 10
      vertex -2.5 20 0
    endloop
  endfacet
endsolid OpenSCAD_Model
